<svg class="stage stage-3" width="640" height="300" preserveAspectRatio="xMidYMid meet" viewBox="0 0 640 300">
  <rect class="plant-stalk" x="357.1" y="428.6" width="71.4" height="71.4" style="fill: #94ca5d"/>
  <rect class="plant-stalk" x="357.1" y="500" width="71.4" height="71.4" style="fill: #94ca5d"/>
  <rect class="plant-stalk" x="428.5" y="500" width="71.4" height="71.4" style="fill: #94ca5d"/>
  <rect class="plant-stalk" x="357.1" y="571.4" width="71.4" height="71.4" style="fill: #94ca5d"/>
  <rect class="plant-stalk" x="357.1" y="357.2" width="71.4" height="71.4" style="fill: #94ca5d"/>
  <rect class="plant-stalk" x="285.7" y="357.2" width="71.4" height="71.4" style="fill: #94ca5d"/>
  <rect class="plant-stalk" x="357.1" y="214.3" width="71.4" height="71.4" style="fill: #94ca5d"/>
  <rect class="plant-stalk" x="500" y="214.3" width="71.4" height="71.4" style="fill: #94ca5d"/>
  <rect class="plant-stalk" x="500" y="142.9" width="71.4" height="71.4" style="fill: #94ca5d"/>
  <rect class="plant-stalk" x="571.4" y="142.9" width="71.4" height="71.4" style="fill: #94ca5d"/>
  <rect class="plant-stalk" x="571.4" y="71.4" width="71.4" height="71.4" style="fill: #94ca5d"/>
  <rect class="plant-stalk" x="285.7" y="285.7" width="71.4" height="71.4" style="fill: #94ca5d"/>
  <rect class="plant-stalk" x="285.7" y="214.3" width="71.4" height="71.4" style="fill: #94ca5d"/>
  <rect class="plant-stalk" x="285.7" y="142.9" width="71.4" height="71.4" style="fill: #94ca5d"/>
  <rect class="plant-stalk" x="214.2" y="142.9" width="71.4" height="71.4" style="fill: #94ca5d"/>
  <rect class="plant-stalk" x="142.8" y="71.4" width="71.4" height="71.4" style="fill: #94ca5d"/>
  <rect class="plant-stalk" x="71.4" y="71.4" width="71.4" height="71.4" style="fill: #94ca5d"/>
  <rect class="plant-stalk" y="71.4" width="71.4" height="71.4" style="fill: #94ca5d"/>
  <rect class="plant-stalk" width="71.4" height="71.4" style="fill: #94ca5d"/>
  <rect class="plant-stalk" x="214.2" y="357.2" width="71.4" height="71.4" style="fill: #94ca5d"/>
  <rect class="plant-stalk" x="142.8" y="357.2" width="71.4" height="71.4" style="fill: #94ca5d"/>
  <rect class="plant-stalk" x="71.4" y="357.2" width="71.4" height="71.4" style="fill: #94ca5d"/>
  <rect class="plant-stalk" x="71.4" y="285.7" width="71.4" height="71.4" style="fill: #94ca5d"/>
  <rect class="plant-stalk" x="142.8" y="142.9" width="71.4" height="71.4" style="fill: #94ca5d"/>
  <rect class="plant-stalk" x="428.5" y="214.3" width="71.4" height="71.4" style="fill: #94ca5d"/>
</svg>
