<svg class="stage stage-4" width="640" height="300" preserveAspectRatio="xMidYMid meet" viewBox="0 0 640 300">
  <rect class="plant-stalk" x="357.1" y="642.9" width="71.4" height="71.4" style="fill: #94ca5d"/>
  <rect class="plant-stalk" x="357.1" y="714.3" width="71.4" height="71.4" style="fill: #94ca5d"/>
  <rect class="plant-stalk" x="357.1" y="785.7" width="71.4" height="71.4" style="fill: #94ca5d"/>
  <rect class="plant-stalk" x="428.5" y="785.7" width="71.4" height="71.4" style="fill: #94ca5d"/>
  <rect class="plant-stalk" x="500" y="785.7" width="71.4" height="71.4" style="fill: #94ca5d"/>
  <rect class="plant-stalk" x="500" y="714.3" width="71.4" height="71.4" style="fill: #94ca5d"/>
  <rect class="plant-stalk" x="357.1" y="857.2" width="71.4" height="71.4" style="fill: #94ca5d"/>
  <rect class="plant-stalk" x="285.7" y="857.2" width="71.4" height="71.4" style="fill: #94ca5d"/>
  <rect class="plant-stalk" x="357.1" y="928.6" width="71.4" height="71.4" style="fill: #94ca5d"/>
  <rect class="plant-stalk" x="357.1" y="1000" width="71.4" height="71.4" style="fill: #94ca5d"/>
  <rect class="plant-stalk" x="357.1" y="1071.5" width="71.4" height="71.4" style="fill: #94ca5d"/>
  <rect class="plant-stalk" x="357.1" y="571.5" width="71.4" height="71.4" style="fill: #94ca5d"/>
  <rect class="plant-stalk" x="285.7" y="571.5" width="71.4" height="71.4" style="fill: #94ca5d"/>
  <rect class="plant-stalk" x="357.1" y="428.6" width="71.4" height="71.4" style="fill: #94ca5d"/>
  <rect class="plant-stalk" x="500" y="428.6" width="71.4" height="71.4" style="fill: #94ca5d"/>
  <rect class="plant-stalk" x="500" y="357.2" width="71.4" height="71.4" style="fill: #94ca5d"/>
  <rect class="plant-stalk" x="571.4" y="357.2" width="71.4" height="71.4" style="fill: #94ca5d"/>
  <rect class="plant-stalk" x="571.4" y="285.7" width="71.4" height="71.4" style="fill: #94ca5d"/>
  <rect class="plant-stalk" x="285.7" y="500" width="71.4" height="71.4" style="fill: #94ca5d"/>
  <rect class="plant-stalk" x="285.7" y="428.6" width="71.4" height="71.4" style="fill: #94ca5d"/>
  <rect class="plant-stalk" x="285.7" y="357.2" width="71.4" height="71.4" style="fill: #94ca5d"/>
  <rect class="plant-stalk" x="285.7" y="285.7" width="71.4" height="71.4" style="fill: #94ca5d"/>
  <rect class="plant-stalk" x="357.1" y="285.7" width="71.4" height="71.4" style="fill: #94ca5d"/>
  <rect class="plant-stalk" x="357.1" y="214.3" width="71.4" height="71.4" style="fill: #94ca5d"/>
  <rect class="plant-stalk" x="357.1" y="142.9" width="71.4" height="71.4" style="fill: #94ca5d"/>
  <rect class="plant-stalk" x="357.1" y="71.5" width="71.4" height="71.4" style="fill: #94ca5d"/>
  <rect class="plant-stalk" x="285.7" y="71.5" width="71.4" height="71.4" style="fill: #94ca5d"/>
  <rect class="plant-stalk" x="285.7" width="71.4" height="71.4" style="fill: #94ca5d"/>
  <rect class="plant-stalk" x="214.2" y="357.2" width="71.4" height="71.4" style="fill: #94ca5d"/>
  <rect class="plant-stalk" x="142.8" y="285.7" width="71.4" height="71.4" style="fill: #94ca5d"/>
  <rect class="plant-stalk" x="71.4" y="285.7" width="71.4" height="71.4" style="fill: #94ca5d"/>
  <rect class="plant-stalk" y="285.7" width="71.4" height="71.4" style="fill: #94ca5d"/>
  <rect class="plant-stalk" y="214.3" width="71.4" height="71.4" style="fill: #94ca5d"/>
  <rect class="plant-stalk" x="214.2" y="571.5" width="71.4" height="71.4" style="fill: #94ca5d"/>
  <rect class="plant-stalk" x="142.8" y="571.5" width="71.4" height="71.4" style="fill: #94ca5d"/>
  <rect class="plant-stalk" x="71.4" y="571.5" width="71.4" height="71.4" style="fill: #94ca5d"/>
  <rect class="plant-stalk" x="71.4" y="500" width="71.4" height="71.4" style="fill: #94ca5d"/>
  <rect class="plant-stalk" y="500" width="71.4" height="71.4" style="fill: #94ca5d"/>
  <rect class="plant-stalk" x="142.8" y="357.2" width="71.4" height="71.4" style="fill: #94ca5d"/>
  <rect class="plant-stalk" x="428.5" y="428.6" width="71.4" height="71.4" style="fill: #94ca5d"/>
</svg>
