<svg class="stage stage-6" width="640" height="300" preserveAspectRatio="xMidYMid meet" viewBox="0 0 640 300">
  <rect class="plant-stalk" x="714.3" y="928.5" width="71.4" height="71.4" style="fill: #94ca5d"/>
  <rect class="plant-stalk" x="714.3" y="1000" width="71.4" height="71.4" style="fill: #94ca5d"/>
  <rect class="plant-stalk" x="714.3" y="1071.4" width="71.4" height="71.4" style="fill: #94ca5d"/>
  <rect class="plant-stalk" x="785.7" y="1071.4" width="71.4" height="71.4" style="fill: #94ca5d"/>
  <rect class="plant-stalk" x="857.1" y="1071.4" width="71.4" height="71.4" style="fill: #94ca5d"/>
  <rect class="plant-stalk" x="857.1" y="1000" width="71.4" height="71.4" style="fill: #94ca5d"/>
  <rect class="plant-stalk" x="928.5" y="1000" width="71.4" height="71.4" style="fill: #94ca5d"/>
  <rect class="plant-stalk" x="1000" y="1000" width="71.4" height="71.4" style="fill: #94ca5d"/>
  <rect class="plant-stalk" x="1000" y="928.5" width="71.4" height="71.4" style="fill: #94ca5d"/>
  <rect class="plant-stalk" x="1000" y="857.1" width="71.4" height="71.4" style="fill: #94ca5d"/>
  <rect class="plant-stalk" x="1071.4" y="857.1" width="71.4" height="71.4" style="fill: #94ca5d"/>
  <rect class="plant-stalk" x="1071.4" y="785.7" width="71.4" height="71.4" style="fill: #94ca5d"/>
  <rect class="plant-stalk" x="1071.4" y="714.3" width="71.4" height="71.4" style="fill: #94ca5d"/>
  <rect class="plant-stalk" x="1142.8" y="714.3" width="71.4" height="71.4" style="fill: #94ca5d"/>
  <rect class="plant-stalk" x="1214.3" y="714.3" width="71.4" height="71.4" style="fill: #94ca5d"/>
  <rect class="plant-stalk" x="714.3" y="1142.8" width="71.4" height="71.4" style="fill: #94ca5d"/>
  <rect class="plant-stalk" x="642.8" y="1142.8" width="71.4" height="71.4" style="fill: #94ca5d"/>
  <rect class="plant-stalk" x="571.4" y="1142.8" width="71.4" height="71.4" style="fill: #94ca5d"/>
  <rect class="plant-stalk" x="571.4" y="1071.4" width="71.4" height="71.4" style="fill: #94ca5d"/>
  <rect class="plant-stalk" x="500" y="1071.4" width="71.4" height="71.4" style="fill: #94ca5d"/>
  <rect class="plant-stalk" x="428.5" y="1071.4" width="71.4" height="71.4" style="fill: #94ca5d"/>
  <rect class="plant-stalk" x="428.5" y="1000" width="71.4" height="71.4" style="fill: #94ca5d"/>
  <rect class="plant-stalk" x="357.1" y="1000" width="71.4" height="71.4" style="fill: #94ca5d"/>
  <rect class="plant-stalk" x="285.7" y="1000" width="71.4" height="71.4" style="fill: #94ca5d"/>
  <rect class="plant-stalk" x="714.3" y="1214.3" width="71.4" height="71.4" style="fill: #94ca5d"/>
  <rect class="plant-stalk" x="714.3" y="1285.7" width="71.4" height="71.4" style="fill: #94ca5d"/>
  <rect class="plant-stalk" x="785.7" y="1285.7" width="71.4" height="71.4" style="fill: #94ca5d"/>
  <rect class="plant-stalk" x="642.8" y="1357.1" width="71.4" height="71.4" style="fill: #94ca5d"/>
  <rect class="plant-stalk" x="714.3" y="1357.1" width="71.4" height="71.4" style="fill: #94ca5d"/>
  <rect class="plant-stalk" x="714.3" y="1428.5" width="71.4" height="71.4" style="fill: #94ca5d"/>
  <rect class="plant-stalk" x="714.3" y="1500" width="71.4" height="71.4" style="fill: #94ca5d"/>
  <rect class="plant-stalk" x="714.3" y="857.1" width="71.4" height="71.4" style="fill: #94ca5d"/>
  <rect class="plant-stalk" x="642.8" y="857.1" width="71.4" height="71.4" style="fill: #94ca5d"/>
  <rect class="plant-stalk" x="714.3" y="714.3" width="71.4" height="71.4" style="fill: #94ca5d"/>
  <rect class="plant-stalk" x="857.1" y="714.3" width="71.4" height="71.4" style="fill: #94ca5d"/>
  <rect class="plant-stalk" x="857.1" y="642.8" width="71.4" height="71.4" style="fill: #94ca5d"/>
  <rect class="plant-stalk" x="928.5" y="642.8" width="71.4" height="71.4" style="fill: #94ca5d"/>
  <rect class="plant-stalk" x="928.5" y="571.4" width="71.4" height="71.4" style="fill: #94ca5d"/>
  <rect class="plant-stalk" x="928.5" y="500" width="71.4" height="71.4" style="fill: #94ca5d"/>
  <rect class="plant-stalk" x="1000" y="500" width="71.4" height="71.4" style="fill: #94ca5d"/>
  <rect class="plant-stalk" x="1000" y="428.5" width="71.4" height="71.4" style="fill: #94ca5d"/>
  <rect class="plant-stalk" x="1000" y="357.1" width="71.4" height="71.4" style="fill: #94ca5d"/>
  <rect class="plant-stalk" x="1071.4" y="357.1" width="71.4" height="71.4" style="fill: #94ca5d"/>
  <rect class="plant-stalk" x="1142.8" y="357.1" width="71.4" height="71.4" style="fill: #94ca5d"/>
  <rect class="plant-stalk" x="642.8" y="785.7" width="71.4" height="71.4" style="fill: #94ca5d"/>
  <rect class="plant-stalk" x="642.8" y="714.3" width="71.4" height="71.4" style="fill: #94ca5d"/>
  <rect class="plant-stalk" x="642.8" y="642.8" width="71.4" height="71.4" style="fill: #94ca5d"/>
  <rect class="plant-stalk" x="642.8" y="571.4" width="71.4" height="71.4" style="fill: #94ca5d"/>
  <rect class="plant-stalk" x="714.3" y="571.4" width="71.4" height="71.4" style="fill: #94ca5d"/>
  <rect class="plant-stalk" x="714.3" y="500" width="71.4" height="71.4" style="fill: #94ca5d"/>
  <rect class="plant-stalk" x="714.3" y="428.5" width="71.4" height="71.4" style="fill: #94ca5d"/>
  <rect class="plant-stalk" x="714.3" y="357.1" width="71.4" height="71.4" style="fill: #94ca5d"/>
  <rect class="plant-stalk" x="642.8" y="357.1" width="71.4" height="71.4" style="fill: #94ca5d"/>
  <rect class="plant-stalk" x="642.8" y="285.7" width="71.4" height="71.4" style="fill: #94ca5d"/>
  <rect class="plant-stalk" x="642.8" y="214.3" width="71.4" height="71.4" style="fill: #94ca5d"/>
  <rect class="plant-stalk" x="642.8" y="142.8" width="71.4" height="71.4" style="fill: #94ca5d"/>
  <rect class="plant-stalk" x="642.8" y="71.4" width="71.4" height="71.4" style="fill: #94ca5d"/>
  <rect class="plant-stalk" x="642.8" width="71.4" height="71.4" style="fill: #94ca5d"/>
  <rect class="plant-stalk" x="571.4" width="71.4" height="71.4" style="fill: #94ca5d"/>
  <rect class="plant-stalk" x="500" width="71.4" height="71.4" style="fill: #94ca5d"/>
  <rect class="plant-stalk" x="571.4" y="642.8" width="71.4" height="71.4" style="fill: #94ca5d"/>
  <rect class="plant-stalk" x="500" y="571.4" width="71.4" height="71.4" style="fill: #94ca5d"/>
  <rect class="plant-stalk" x="428.5" y="571.4" width="71.4" height="71.4" style="fill: #94ca5d"/>
  <rect class="plant-stalk" x="357.1" y="571.4" width="71.4" height="71.4" style="fill: #94ca5d"/>
  <rect class="plant-stalk" x="357.1" y="500" width="71.4" height="71.4" style="fill: #94ca5d"/>
  <rect class="plant-stalk" x="357.1" y="428.5" width="71.4" height="71.4" style="fill: #94ca5d"/>
  <rect class="plant-stalk" x="357.1" y="357.1" width="71.4" height="71.4" style="fill: #94ca5d"/>
  <rect class="plant-stalk" x="285.7" y="357.1" width="71.4" height="71.4" style="fill: #94ca5d"/>
  <rect class="plant-stalk" x="285.7" y="285.7" width="71.4" height="71.4" style="fill: #94ca5d"/>
  <rect class="plant-stalk" x="285.7" y="214.3" width="71.4" height="71.4" style="fill: #94ca5d"/>
  <rect class="plant-stalk" x="214.3" y="214.3" width="71.4" height="71.4" style="fill: #94ca5d"/>
  <rect class="plant-stalk" x="142.8" y="214.3" width="71.4" height="71.4" style="fill: #94ca5d"/>
  <g>
    <rect class="plant-fruit" y="714.3" width="71.4" height="71.4" style="fill: #de6683"/>
    <rect class="plant-fruit" x="71.4" y="714.3" width="71.4" height="71.4" style="fill: #c13b54"/>
    <rect class="plant-fruit" x="142.8" y="714.3" width="71.4" height="71.4" style="fill: #c13b54"/>
    <rect class="plant-fruit" y="785.7" width="71.4" height="71.4" style="fill: #c13b54"/>
    <rect class="plant-fruit" x="71.4" y="785.7" width="71.4" height="71.4" style="fill: #c13b54"/>
    <rect class="plant-fruit" x="142.8" y="785.7" width="71.4" height="71.4" style="fill: #c13b54"/>
    <rect class="plant-fruit" y="857.1" width="71.4" height="71.4" style="fill: #c13b54"/>
    <rect class="plant-fruit" x="71.4" y="857.1" width="71.4" height="71.4" style="fill: #c13b54"/>
    <rect class="plant-fruit" x="142.8" y="857.1" width="71.4" height="71.4" style="fill: #c13b54"/>
  </g>
  <g>
    <rect class="plant-fruit" x="214.3" y="1071.4" width="71.4" height="71.4" style="fill: #de6683"/>
    <rect class="plant-fruit" x="285.7" y="1071.4" width="71.4" height="71.4" style="fill: #c13b54"/>
    <rect class="plant-fruit" x="357.1" y="1071.4" width="71.4" height="71.4" style="fill: #c13b54"/>
    <rect class="plant-fruit" x="214.3" y="1142.8" width="71.4" height="71.4" style="fill: #c13b54"/>
    <rect class="plant-fruit" x="285.7" y="1142.8" width="71.4" height="71.4" style="fill: #c13b54"/>
    <rect class="plant-fruit" x="357.1" y="1142.8" width="71.4" height="71.4" style="fill: #c13b54"/>
    <rect class="plant-fruit" x="214.3" y="1214.3" width="71.4" height="71.4" style="fill: #c13b54"/>
    <rect class="plant-fruit" x="285.7" y="1214.3" width="71.4" height="71.4" style="fill: #c13b54"/>
    <rect class="plant-fruit" x="357.1" y="1214.3" width="71.4" height="71.4" style="fill: #c13b54"/>
  </g>
  <g>
    <rect class="plant-fruit" x="71.4" y="285.7" width="71.4" height="71.4" style="fill: #de6683"/>
    <rect class="plant-fruit" x="142.8" y="285.7" width="71.4" height="71.4" style="fill: #c13b54"/>
    <rect class="plant-fruit" x="214.3" y="285.7" width="71.4" height="71.4" style="fill: #c13b54"/>
    <rect class="plant-fruit" x="71.4" y="357.1" width="71.4" height="71.4" style="fill: #c13b54"/>
    <rect class="plant-fruit" x="142.8" y="357.1" width="71.4" height="71.4" style="fill: #c13b54"/>
    <rect class="plant-fruit" x="214.3" y="357.1" width="71.4" height="71.4" style="fill: #c13b54"/>
    <rect class="plant-fruit" x="71.4" y="428.5" width="71.4" height="71.4" style="fill: #c13b54"/>
    <rect class="plant-fruit" x="142.8" y="428.5" width="71.4" height="71.4" style="fill: #c13b54"/>
    <rect class="plant-fruit" x="214.3" y="428.5" width="71.4" height="71.4" style="fill: #c13b54"/>
  </g>
  <g>
    <rect class="plant-fruit" x="428.5" y="71.4" width="71.4" height="71.4" style="fill: #de6683"/>
    <rect class="plant-fruit" x="500" y="71.4" width="71.4" height="71.4" style="fill: #c13b54"/>
    <rect class="plant-fruit" x="571.4" y="71.4" width="71.4" height="71.4" style="fill: #c13b54"/>
    <rect class="plant-fruit" x="428.5" y="142.8" width="71.4" height="71.4" style="fill: #c13b54"/>
    <rect class="plant-fruit" x="500" y="142.8" width="71.4" height="71.4" style="fill: #c13b54"/>
    <rect class="plant-fruit" x="571.4" y="142.8" width="71.4" height="71.4" style="fill: #c13b54"/>
    <rect class="plant-fruit" x="428.5" y="214.3" width="71.4" height="71.4" style="fill: #c13b54"/>
    <rect class="plant-fruit" x="500" y="214.3" width="71.4" height="71.4" style="fill: #c13b54"/>
    <rect class="plant-fruit" x="571.4" y="214.3" width="71.4" height="71.4" style="fill: #c13b54"/>
  </g>
  <g>
    <rect class="plant-fruit" x="1071.4" y="428.5" width="71.4" height="71.4" style="fill: #de6683"/>
    <rect class="plant-fruit" x="1142.8" y="428.5" width="71.4" height="71.4" style="fill: #c13b54"/>
    <rect class="plant-fruit" x="1214.3" y="428.5" width="71.4" height="71.4" style="fill: #c13b54"/>
    <rect class="plant-fruit" x="1071.4" y="500" width="71.4" height="71.4" style="fill: #c13b54"/>
    <rect class="plant-fruit" x="1142.8" y="500" width="71.4" height="71.4" style="fill: #c13b54"/>
    <rect class="plant-fruit" x="1214.3" y="500" width="71.4" height="71.4" style="fill: #c13b54"/>
    <rect class="plant-fruit" x="1071.4" y="571.4" width="71.4" height="71.4" style="fill: #c13b54"/>
    <rect class="plant-fruit" x="1142.8" y="571.4" width="71.4" height="71.4" style="fill: #c13b54"/>
    <rect class="plant-fruit" x="1214.3" y="571.4" width="71.4" height="71.4" style="fill: #c13b54"/>
  </g>
  <g>
    <rect class="plant-fruit" x="1142.8" y="785.7" width="71.4" height="71.4" style="fill: #de6683"/>
    <rect class="plant-fruit" x="1214.3" y="785.7" width="71.4" height="71.4" style="fill: #c13b54"/>
    <rect class="plant-fruit" x="1285.7" y="785.7" width="71.4" height="71.4" style="fill: #c13b54"/>
    <rect class="plant-fruit" x="1142.8" y="857.1" width="71.4" height="71.4" style="fill: #c13b54"/>
    <rect class="plant-fruit" x="1214.3" y="857.1" width="71.4" height="71.4" style="fill: #c13b54"/>
    <rect class="plant-fruit" x="1285.7" y="857.1" width="71.4" height="71.4" style="fill: #c13b54"/>
    <rect class="plant-fruit" x="1142.8" y="928.5" width="71.4" height="71.4" style="fill: #c13b54"/>
    <rect class="plant-fruit" x="1214.3" y="928.5" width="71.4" height="71.4" style="fill: #c13b54"/>
    <rect class="plant-fruit" x="1285.7" y="928.5" width="71.4" height="71.4" style="fill: #c13b54"/>
  </g>
  <rect class="plant-stalk" x="571.4" y="857.1" width="71.4" height="71.4" style="fill: #94ca5d"/>
  <rect class="plant-stalk" x="500" y="857.1" width="71.4" height="71.4" style="fill: #94ca5d"/>
  <rect class="plant-stalk" x="428.5" y="857.1" width="71.4" height="71.4" style="fill: #94ca5d"/>
  <rect class="plant-stalk" x="428.5" y="785.7" width="71.4" height="71.4" style="fill: #94ca5d"/>
  <rect class="plant-stalk" x="357.1" y="785.7" width="71.4" height="71.4" style="fill: #94ca5d"/>
  <rect class="plant-stalk" x="285.7" y="785.7" width="71.4" height="71.4" style="fill: #94ca5d"/>
  <rect class="plant-stalk" x="285.7" y="714.3" width="71.4" height="71.4" style="fill: #94ca5d"/>
  <rect class="plant-stalk" x="214.3" y="714.3" width="71.4" height="71.4" style="fill: #94ca5d"/>
  <rect class="plant-stalk" x="214.3" y="642.8" width="71.4" height="71.4" style="fill: #94ca5d"/>
  <rect class="plant-stalk" x="142.8" y="642.8" width="71.4" height="71.4" style="fill: #94ca5d"/>
  <rect class="plant-stalk" x="71.4" y="642.8" width="71.4" height="71.4" style="fill: #94ca5d"/>
  <rect class="plant-stalk" x="500" y="642.8" width="71.4" height="71.4" style="fill: #94ca5d"/>
  <rect class="plant-stalk" x="785.7" y="714.3" width="71.4" height="71.4" style="fill: #94ca5d"/>
</svg>
